<svg xmlns="http://www.w3.org/2000/svg" width="48" height="48" viewBox="0 0 48 48">
  <rect width="48" height="48" rx="10" fill="#7c3aed"/>
  <path d="M24 13c-2.8-2.2-6.6-3-11-3v20c4.4 0 8.2.8 11 3 2.8-2.2 6.6-3 11-3V10c-4.4 0-8.2.8-11 3z"
        fill="none" stroke="#ffffff" stroke-width="2.2" stroke-linejoin="round" stroke-linecap="round"/>
  <path d="M24 13v20" stroke="#ffffff" stroke-width="2.2" stroke-linecap="round"/>
  <path d="M16.5 15.5c2 0 4.2.4 5.7 1.3M16.5 20.5c2 0 4.2.4 5.7 1.3M16.5 25.5c2 0 4.2.4 5.7 1.3"
        stroke="#ffffff" stroke-width="1.6" stroke-linecap="round" opacity="0.85"/>
  <path d="M31.5 15.5c-2 0-4.2.4-5.7 1.3M31.5 20.5c-2 0-4.2.4-5.7 1.3M31.5 25.5c-2 0-4.2.4-5.7 1.3"
        stroke="#ffffff" stroke-width="1.6" stroke-linecap="round" opacity="0.85"/>
</svg>
